<svg width="18" height="18" viewBox="0 0 18 18" fill="none" xmlns="http://www.w3.org/2000/svg">
<g clip-path="url(#clip0_27_8726)">
<path d="M16.4735 8.07538L13.3094 10.8056L14.2734 14.8887C14.3266 15.1103 14.3129 15.3428 14.234 15.5566C14.1552 15.7705 14.0147 15.9562 13.8304 16.0903C13.646 16.2244 13.4261 16.3008 13.1983 16.3099C12.9706 16.3191 12.7452 16.2605 12.5507 16.1416L8.99996 13.9563L5.44707 16.1416C5.2526 16.2598 5.02751 16.3178 4.80015 16.3084C4.57278 16.2989 4.3533 16.2223 4.16935 16.0884C3.98539 15.9544 3.84519 15.769 3.76639 15.5555C3.68759 15.342 3.67372 15.11 3.72652 14.8887L4.69402 10.8056L1.52996 8.07538C1.3579 7.92668 1.23347 7.73058 1.17219 7.51158C1.11092 7.29258 1.11553 7.06038 1.18544 6.84398C1.25534 6.62758 1.38746 6.43657 1.56527 6.29481C1.74309 6.15304 1.95873 6.06681 2.18527 6.04687L6.33371 5.71218L7.93402 1.83937C8.02064 1.6283 8.16807 1.44776 8.35756 1.3207C8.54705 1.19364 8.77005 1.12579 8.9982 1.12579C9.22635 1.12579 9.44934 1.19364 9.63884 1.3207C9.82833 1.44776 9.97576 1.6283 10.0624 1.83937L11.662 5.71218L15.8104 6.04687C16.0374 6.06607 16.2537 6.15182 16.4321 6.29339C16.6106 6.43496 16.7433 6.62604 16.8137 6.8427C16.884 7.05937 16.8889 7.29197 16.8276 7.51137C16.7663 7.73077 16.6417 7.92722 16.4693 8.07609L16.4735 8.07538Z" fill="#F5C518"/>
</g>
<defs>
<clipPath id="clip0_27_8726">
<rect width="18" height="18" fill="white"/>
</clipPath>
</defs>
</svg>
